<?xml version="1.0" encoding="UTF-8"?>
<svg xmlns="http://www.w3.org/2000/svg" xmlns:xlink="http://www.w3.org/1999/xlink" width="747.99pt" height="339.05pt" viewBox="0 0 747.99 339.05" version="1.1">
<defs>
<clipPath id="clip1">
  <path d="M 543 114 L 747.988281 114 L 747.988281 281 L 543 281 Z M 543 114 "/>
</clipPath>
<clipPath id="clip2">
  <path d="M 175 313 L 203 313 L 203 339.050781 L 175 339.050781 Z M 175 313 "/>
</clipPath>
<clipPath id="clip3">
  <path d="M 284 313 L 311 313 L 311 339.050781 L 284 339.050781 Z M 284 313 "/>
</clipPath>
<clipPath id="clip4">
  <path d="M 506 313 L 529 313 L 529 339.050781 L 506 339.050781 Z M 506 313 "/>
</clipPath>
<clipPath id="clip5">
  <path d="M 694 313 L 722 313 L 722 339.050781 L 694 339.050781 Z M 694 313 "/>
</clipPath>
<clipPath id="clip6">
  <path d="M 725 314 L 747.988281 314 L 747.988281 339 L 725 339 Z M 725 314 "/>
</clipPath>
<clipPath id="clip7">
  <path d="M 543 114 L 747.988281 114 L 747.988281 281 L 543 281 Z M 543 114 "/>
</clipPath>
<clipPath id="clip8">
  <path d="M 175 313 L 203 313 L 203 339.050781 L 175 339.050781 Z M 175 313 "/>
</clipPath>
<clipPath id="clip9">
  <path d="M 284 313 L 311 313 L 311 339.050781 L 284 339.050781 Z M 284 313 "/>
</clipPath>
<clipPath id="clip10">
  <path d="M 506 313 L 529 313 L 529 339.050781 L 506 339.050781 Z M 506 313 "/>
</clipPath>
<clipPath id="clip11">
  <path d="M 694 313 L 722 313 L 722 339.050781 L 694 339.050781 Z M 694 313 "/>
</clipPath>
<clipPath id="clip12">
  <path d="M 725 314 L 747.988281 314 L 747.988281 339 L 725 339 Z M 725 314 "/>
</clipPath>
</defs>
<g id="surface1">
<g clip-path="url(#clip1)" clip-rule="nonzero">
<path style=" stroke:none;fill-rule:nonzero;fill:rgb(2.69928%,51.799011%,34.498596%);fill-opacity:1;" d="M 543.773438 280.058594 C 543.773438 280.058594 589.332031 171.394531 592.847656 165.550781 C 596.355469 159.707031 620.527344 118.601563 690.632813 115.105469 C 753.054688 111.449219 747.296875 118.558594 747.296875 118.558594 L 722.953125 164.171875 L 671.941406 164.171875 C 671.941406 164.171875 660.253906 164.171875 657.917969 173.519531 C 655.652344 180.308594 666.097656 179.355469 666.097656 179.355469 L 714.199219 179.203125 L 696.667969 223.714844 L 643.902344 224.925781 C 643.902344 224.925781 633.382813 227.261719 629.878906 236.613281 C 626.371094 245.953125 613.527344 279.835938 613.527344 279.835938 L 543.773438 280.058594 "/>
</g>
<path style=" stroke:none;fill-rule:nonzero;fill:rgb(2.69928%,51.799011%,34.498596%);fill-opacity:1;" d="M 389.71875 288.738281 C 328.378906 288.738281 295.953125 251.359375 315.703125 203.507813 C 335.636719 155.140625 398.867188 117.769531 461.066406 117.769531 C 522.957031 117.769531 555.660156 155.140625 535.71875 203.507813 C 515.785156 251.859375 452.46875 288.738281 389.71875 288.738281 M 406.347656 254.878906 L 449.25 162.769531 C 449.25 162.769531 458.070313 147.765625 445.46875 146.363281 C 435.757813 144.960938 430.328125 160.238281 430.328125 160.238281 L 393.726563 240.988281 C 393.726563 240.988281 380.539063 261.125 392.460938 262.453125 C 403.816406 263.71875 406.347656 254.878906 406.347656 254.878906 "/>
<path style=" stroke:none;fill-rule:nonzero;fill:rgb(92.89856%,12.89978%,18.798828%);fill-opacity:1;" d="M 0.988281 281.980469 L 234.613281 281.90625 C 234.613281 281.90625 306.34375 90.359375 429.402344 0.00390625 C 429.402344 0.00390625 177.035156 88.804688 0.988281 281.980469 "/>
<path style=" stroke:none;fill-rule:nonzero;fill:rgb(0.799561%,1.199341%,1.199341%);fill-opacity:1;" d="M 3.515625 314.304688 L 0 314.304688 L 0 338.730469 L 3.515625 338.730469 L 3.515625 314.304688 "/>
<path style=" stroke:none;fill-rule:nonzero;fill:rgb(0.799561%,1.199341%,1.199341%);fill-opacity:1;" d="M 31.523438 314.304688 L 28.230469 314.304688 L 28.230469 333.207031 L 11.675781 314.304688 L 8.894531 314.304688 L 8.894531 338.730469 L 12.199219 338.730469 L 12.199219 319.921875 L 28.519531 338.730469 L 31.523438 338.730469 L 31.523438 314.304688 "/>
<path style=" stroke:none;fill-rule:nonzero;fill:rgb(0.799561%,1.199341%,1.199341%);fill-opacity:1;" d="M 55.21875 314.304688 L 34.808594 314.304688 L 34.808594 317.460938 L 43.265625 317.460938 L 43.265625 338.730469 L 46.761719 338.730469 L 46.761719 317.460938 L 55.21875 317.460938 L 55.21875 314.304688 "/>
<path style=" stroke:none;fill-rule:nonzero;fill:rgb(0.799561%,1.199341%,1.199341%);fill-opacity:1;" d="M 72.355469 314.304688 L 58.503906 314.304688 L 58.503906 338.730469 L 72.683594 338.730469 L 72.683594 335.574219 L 62.007813 335.574219 L 62.007813 327.976563 L 71.996094 327.976563 L 71.996094 324.832031 L 62.007813 324.832031 L 62.007813 317.460938 L 72.355469 317.460938 L 72.355469 314.304688 "/>
<path style=" stroke:none;fill-rule:nonzero;fill:rgb(0.799561%,1.199341%,1.199341%);fill-opacity:1;" d="M 76.476563 314.304688 L 76.476563 338.730469 L 79.996094 338.730469 L 79.996094 328.128906 L 81.460938 328.128906 C 83.25 328.128906 84.714844 328.691406 87.933594 333.714844 L 91.164063 338.730469 L 95.359375 338.730469 C 93.667969 336.394531 93.066406 335.574219 92.023438 333.886719 C 90.152344 330.847656 88.792969 328.582031 86.574219 327.117188 C 89.199219 326.085938 90.664063 323.972656 90.664063 321.144531 C 90.664063 316.90625 87.574219 314.304688 82.640625 314.304688 L 76.476563 314.304688 M 79.996094 317.3125 L 82.25 317.3125 C 85.648438 317.3125 87.007813 318.703125 87.042969 320.984375 C 87.070313 323.035156 86.011719 324.972656 82.25 324.972656 L 79.996094 324.972656 L 79.996094 317.3125 "/>
<path style=" stroke:none;fill-rule:nonzero;fill:rgb(0.799561%,1.199341%,1.199341%);fill-opacity:1;" d="M 120.628906 314.304688 L 117.320313 314.304688 L 117.320313 333.207031 L 100.777344 314.304688 L 97.996094 314.304688 L 97.996094 338.730469 L 101.289063 338.730469 L 101.289063 319.921875 L 117.609375 338.730469 L 120.628906 338.730469 L 120.628906 314.304688 "/>
<path style=" stroke:none;fill-rule:nonzero;fill:rgb(0.799561%,1.199341%,1.199341%);fill-opacity:1;" d="M 136.257813 314.152344 L 133.789063 314.152344 L 123.292969 338.71875 L 126.886719 338.71875 L 129.957031 331.527344 L 140.335938 331.527344 L 143.597656 338.71875 L 147.179688 338.71875 L 136.257813 314.152344 M 134.972656 319.53125 L 138.910156 328.382813 L 131.316406 328.382813 L 134.972656 319.53125 "/>
<path style=" stroke:none;fill-rule:nonzero;fill:rgb(0.799561%,1.199341%,1.199341%);fill-opacity:1;" d="M 164.613281 314.304688 L 144.203125 314.304688 L 144.203125 317.460938 L 152.660156 317.460938 L 152.660156 338.730469 L 156.167969 338.730469 L 156.167969 317.460938 L 164.613281 317.460938 L 164.613281 314.304688 "/>
<path style=" stroke:none;fill-rule:nonzero;fill:rgb(0.799561%,1.199341%,1.199341%);fill-opacity:1;" d="M 171.445313 314.304688 L 167.929688 314.304688 L 167.929688 338.730469 L 171.445313 338.730469 L 171.445313 314.304688 "/>
<g clip-path="url(#clip2)" clip-rule="nonzero">
<path style=" stroke:none;fill-rule:nonzero;fill:rgb(0.799561%,1.199341%,1.199341%);fill-opacity:1;" d="M 175.78125 326.511719 C 175.78125 333.140625 180.828125 339.050781 188.816406 339.050781 C 197.085938 339.050781 202.035156 333.109375 202.035156 326.511719 C 202.035156 319.710938 196.945313 313.972656 188.894531 313.972656 C 180.96875 313.972656 175.78125 319.742188 175.78125 326.511719 M 179.394531 326.511719 C 179.394531 321.136719 183.441406 317.203125 188.894531 317.203125 C 194.363281 317.203125 198.410156 321.136719 198.410156 326.511719 C 198.410156 331.847656 194.363281 335.832031 188.894531 335.832031 C 183.441406 335.832031 179.394531 331.847656 179.394531 326.511719 "/>
</g>
<path style=" stroke:none;fill-rule:nonzero;fill:rgb(0.799561%,1.199341%,1.199341%);fill-opacity:1;" d="M 228.917969 314.304688 L 225.625 314.304688 L 225.625 333.207031 L 209.082031 314.304688 L 206.285156 314.304688 L 206.285156 338.730469 L 209.578125 338.730469 L 209.578125 319.921875 L 225.910156 338.730469 L 228.917969 338.730469 L 228.917969 314.304688 "/>
<path style=" stroke:none;fill-rule:nonzero;fill:rgb(0.799561%,1.199341%,1.199341%);fill-opacity:1;" d="M 244.558594 314.152344 L 242.082031 314.152344 L 231.59375 338.71875 L 235.175781 338.71875 L 238.257813 331.527344 L 248.636719 331.527344 L 251.902344 338.71875 L 255.480469 338.71875 L 244.558594 314.152344 M 243.273438 319.53125 L 247.203125 328.382813 L 239.617188 328.382813 L 243.273438 319.53125 "/>
<path style=" stroke:none;fill-rule:nonzero;fill:rgb(0.799561%,1.199341%,1.199341%);fill-opacity:1;" d="M 261.632813 314.304688 L 258.117188 314.304688 L 258.117188 338.730469 L 272.660156 338.730469 L 272.660156 335.574219 L 261.632813 335.574219 L 261.632813 314.304688 "/>
<g clip-path="url(#clip3)" clip-rule="nonzero">
<path style=" stroke:none;fill-rule:nonzero;fill:rgb(0.799561%,1.199341%,1.199341%);fill-opacity:1;" d="M 284.582031 326.511719 C 284.582031 333.140625 289.628906 339.050781 297.609375 339.050781 C 305.875 339.050781 310.828125 333.109375 310.828125 326.511719 C 310.828125 319.710938 305.738281 313.972656 297.683594 313.972656 C 289.765625 313.972656 284.582031 319.742188 284.582031 326.511719 M 288.1875 326.511719 C 288.1875 321.136719 292.230469 317.203125 297.683594 317.203125 C 303.15625 317.203125 307.203125 321.136719 307.203125 326.511719 C 307.203125 331.847656 303.15625 335.832031 297.683594 335.832031 C 292.230469 335.832031 288.1875 331.847656 288.1875 326.511719 "/>
</g>
<path style=" stroke:none;fill-rule:nonzero;fill:rgb(0.799561%,1.199341%,1.199341%);fill-opacity:1;" d="M 315.195313 314.304688 L 315.195313 338.730469 L 318.699219 338.730469 L 318.699219 328.128906 L 320.175781 328.128906 C 321.949219 328.128906 323.429688 328.691406 326.648438 333.714844 L 329.878906 338.730469 L 334.0625 338.730469 C 332.375 336.394531 331.769531 335.574219 330.730469 333.886719 C 328.867188 330.847656 327.507813 328.582031 325.289063 327.117188 C 327.902344 326.085938 329.367188 323.972656 329.367188 321.144531 C 329.367188 316.90625 326.285156 314.304688 321.34375 314.304688 L 315.195313 314.304688 M 318.699219 317.3125 L 320.953125 317.3125 C 324.363281 317.3125 325.722656 318.703125 325.753906 320.984375 C 325.789063 323.035156 324.722656 324.972656 320.953125 324.972656 L 318.699219 324.972656 L 318.699219 317.3125 "/>
<path style=" stroke:none;fill-rule:nonzero;fill:rgb(0.799561%,1.199341%,1.199341%);fill-opacity:1;" d="M 340.277344 314.304688 L 336.761719 314.304688 L 336.761719 338.730469 L 340.277344 338.730469 L 340.277344 314.304688 "/>
<path style=" stroke:none;fill-rule:nonzero;fill:rgb(0.799561%,1.199341%,1.199341%);fill-opacity:1;" d="M 359.554688 314.304688 L 345.6875 314.304688 L 345.6875 338.730469 L 359.871094 338.730469 L 359.871094 335.574219 L 349.203125 335.574219 L 349.203125 327.976563 L 359.191406 327.976563 L 359.191406 324.832031 L 349.203125 324.832031 L 349.203125 317.460938 L 359.554688 317.460938 L 359.554688 314.304688 "/>
<path style=" stroke:none;fill-rule:nonzero;fill:rgb(0.799561%,1.199341%,1.199341%);fill-opacity:1;" d="M 386.191406 314.304688 L 382.898438 314.304688 L 382.898438 333.207031 L 366.363281 314.304688 L 363.558594 314.304688 L 363.558594 338.730469 L 366.863281 338.730469 L 366.863281 319.921875 L 383.195313 338.730469 L 386.191406 338.730469 L 386.191406 314.304688 "/>
<path style=" stroke:none;fill-rule:nonzero;fill:rgb(0.799561%,1.199341%,1.199341%);fill-opacity:1;" d="M 409.886719 314.304688 L 389.472656 314.304688 L 389.472656 317.460938 L 397.929688 317.460938 L 397.929688 338.730469 L 401.4375 338.730469 L 401.4375 317.460938 L 409.886719 317.460938 L 409.886719 314.304688 "/>
<path style=" stroke:none;fill-rule:nonzero;fill:rgb(0.799561%,1.199341%,1.199341%);fill-opacity:1;" d="M 427.03125 314.304688 L 413.167969 314.304688 L 413.167969 338.730469 L 427.351563 338.730469 L 427.351563 335.574219 L 416.683594 335.574219 L 416.683594 327.976563 L 426.671875 327.976563 L 426.671875 324.832031 L 416.683594 324.832031 L 416.683594 317.460938 L 427.03125 317.460938 L 427.03125 314.304688 "/>
<path style=" stroke:none;fill-rule:nonzero;fill:rgb(0.799561%,1.199341%,1.199341%);fill-opacity:1;" d="M 444.9375 314.304688 L 431.082031 314.304688 L 431.082031 338.730469 L 445.265625 338.730469 L 445.265625 335.574219 L 434.585938 335.574219 L 434.585938 327.976563 L 444.578125 327.976563 L 444.578125 324.832031 L 434.585938 324.832031 L 434.585938 317.460938 L 444.9375 317.460938 L 444.9375 314.304688 "/>
<path style=" stroke:none;fill-rule:nonzero;fill:rgb(0.799561%,1.199341%,1.199341%);fill-opacity:1;" d="M 449.058594 314.304688 L 449.058594 338.730469 L 452.574219 338.730469 L 452.574219 328.128906 L 454.042969 328.128906 C 455.828125 328.128906 457.292969 328.691406 460.511719 333.714844 L 463.742188 338.730469 L 467.929688 338.730469 C 466.25 336.394531 465.632813 335.574219 464.605469 333.886719 C 462.734375 330.847656 461.375 328.582031 459.15625 327.117188 C 461.777344 326.085938 463.246094 323.972656 463.246094 321.144531 C 463.246094 316.90625 460.164063 314.304688 455.210938 314.304688 L 449.058594 314.304688 M 452.574219 317.3125 L 454.828125 317.3125 C 458.226563 317.3125 459.589844 318.703125 459.621094 320.984375 C 459.652344 323.035156 458.589844 324.972656 454.828125 324.972656 L 452.574219 324.972656 L 452.574219 317.3125 "/>
<path style=" stroke:none;fill-rule:nonzero;fill:rgb(0.799561%,1.199341%,1.199341%);fill-opacity:1;" d="M 474.144531 314.304688 L 470.640625 314.304688 L 470.640625 338.730469 L 474.144531 338.730469 L 474.144531 314.304688 "/>
<path style=" stroke:none;fill-rule:nonzero;fill:rgb(0.799561%,1.199341%,1.199341%);fill-opacity:1;" d="M 502.152344 314.304688 L 498.859375 314.304688 L 498.859375 333.207031 L 482.316406 314.304688 L 479.511719 314.304688 L 479.511719 338.730469 L 482.824219 338.730469 L 482.824219 319.921875 L 499.148438 338.730469 L 502.152344 338.730469 L 502.152344 314.304688 "/>
<g clip-path="url(#clip4)" clip-rule="nonzero">
<path style=" stroke:none;fill-rule:nonzero;fill:rgb(0.799561%,1.199341%,1.199341%);fill-opacity:1;" d="M 528.929688 326.691406 L 520.726563 326.691406 L 520.726563 329.847656 L 525.421875 329.847656 L 525.421875 334.863281 C 523.742188 335.394531 522.023438 335.820313 520.121094 335.820313 C 514.320313 335.820313 510.238281 331.992188 510.238281 326.554688 C 510.238281 321.253906 514.351563 317.203125 519.652344 317.203125 C 522.585938 317.203125 525.570313 318.03125 528.429688 319.597656 L 528.429688 316.042969 C 524.605469 314.441406 522.585938 313.984375 519.726563 313.984375 C 512.277344 313.984375 506.613281 319.457031 506.613281 326.660156 C 506.613281 333.820313 512.128906 339.050781 519.621094 339.050781 C 523.023438 339.050781 525.667969 338.476563 528.929688 337.042969 L 528.929688 326.691406 "/>
</g>
<path style=" stroke:none;fill-rule:nonzero;fill:rgb(0.799561%,1.199341%,1.199341%);fill-opacity:1;" d="M 557.03125 314.304688 L 543.996094 314.304688 L 543.996094 338.730469 L 547.5 338.730469 L 547.5 327.371094 L 557.03125 327.371094 L 557.03125 324.226563 L 547.5 324.226563 L 547.5 317.460938 L 557.03125 317.460938 L 557.03125 314.304688 "/>
<path style=" stroke:none;fill-rule:nonzero;fill:rgb(0.799561%,1.199341%,1.199341%);fill-opacity:1;" d="M 574.605469 314.304688 L 560.75 314.304688 L 560.75 338.730469 L 574.933594 338.730469 L 574.933594 335.574219 L 564.269531 335.574219 L 564.269531 327.976563 L 574.257813 327.976563 L 574.257813 324.832031 L 564.269531 324.832031 L 564.269531 317.460938 L 574.605469 317.460938 L 574.605469 314.304688 "/>
<path style=" stroke:none;fill-rule:nonzero;fill:rgb(0.799561%,1.199341%,1.199341%);fill-opacity:1;" d="M 578.695313 338.71875 L 588.226563 338.71875 C 596.28125 338.71875 601.191406 332.769531 601.191406 326.523438 C 601.191406 320.753906 597.214844 314.304688 588.183594 314.304688 L 578.695313 314.304688 L 578.695313 338.71875 M 582.214844 317.460938 L 587.621094 317.460938 C 594.453125 317.460938 597.578125 321.601563 597.578125 326.523438 C 597.578125 329.519531 595.75 335.574219 587.792969 335.574219 L 582.214844 335.574219 L 582.214844 317.460938 "/>
<path style=" stroke:none;fill-rule:nonzero;fill:rgb(0.799561%,1.199341%,1.199341%);fill-opacity:1;" d="M 619.378906 314.304688 L 605.523438 314.304688 L 605.523438 338.730469 L 619.699219 338.730469 L 619.699219 335.574219 L 609.042969 335.574219 L 609.042969 327.976563 L 619.03125 327.976563 L 619.03125 324.832031 L 609.042969 324.832031 L 609.042969 317.460938 L 619.378906 317.460938 L 619.378906 314.304688 "/>
<path style=" stroke:none;fill-rule:nonzero;fill:rgb(0.799561%,1.199341%,1.199341%);fill-opacity:1;" d="M 623.503906 314.304688 L 623.503906 338.730469 L 627.019531 338.730469 L 627.019531 328.128906 L 628.484375 328.128906 C 630.269531 328.128906 631.738281 328.691406 634.957031 333.714844 L 638.199219 338.730469 L 642.382813 338.730469 C 640.695313 336.394531 640.089844 335.574219 639.058594 333.886719 C 637.175781 330.847656 635.816406 328.582031 633.597656 327.117188 C 636.222656 326.085938 637.675781 323.972656 637.675781 321.144531 C 637.675781 316.90625 634.617188 314.304688 629.664063 314.304688 L 623.503906 314.304688 M 627.019531 317.3125 L 629.273438 317.3125 C 632.671875 317.3125 634.03125 318.703125 634.0625 320.984375 C 634.105469 323.035156 633.035156 324.972656 629.273438 324.972656 L 627.019531 324.972656 L 627.019531 317.3125 "/>
<path style=" stroke:none;fill-rule:nonzero;fill:rgb(0.799561%,1.199341%,1.199341%);fill-opacity:1;" d="M 655.324219 314.152344 L 652.859375 314.152344 L 642.363281 338.71875 L 645.953125 338.71875 L 649.023438 331.527344 L 659.40625 331.527344 L 662.675781 338.71875 L 666.257813 338.71875 L 655.324219 314.152344 M 654.050781 319.53125 L 657.972656 328.382813 L 650.382813 328.382813 L 654.050781 319.53125 "/>
<path style=" stroke:none;fill-rule:nonzero;fill:rgb(0.799561%,1.199341%,1.199341%);fill-opacity:1;" d="M 683.695313 314.304688 L 663.285156 314.304688 L 663.285156 317.460938 L 671.730469 317.460938 L 671.730469 338.730469 L 675.238281 338.730469 L 675.238281 317.460938 L 683.695313 317.460938 L 683.695313 314.304688 "/>
<path style=" stroke:none;fill-rule:nonzero;fill:rgb(0.799561%,1.199341%,1.199341%);fill-opacity:1;" d="M 690.515625 314.304688 L 686.996094 314.304688 L 686.996094 338.730469 L 690.515625 338.730469 L 690.515625 314.304688 "/>
<g clip-path="url(#clip5)" clip-rule="nonzero">
<path style=" stroke:none;fill-rule:nonzero;fill:rgb(0.799561%,1.199341%,1.199341%);fill-opacity:1;" d="M 694.851563 326.511719 C 694.851563 333.140625 699.898438 339.050781 707.886719 339.050781 C 716.164063 339.050781 721.105469 333.109375 721.105469 326.511719 C 721.105469 319.710938 716.015625 313.972656 707.960938 313.972656 C 700.035156 313.972656 694.851563 319.742188 694.851563 326.511719 M 698.472656 326.511719 C 698.472656 321.136719 702.511719 317.203125 707.960938 317.203125 C 713.445313 317.203125 717.480469 321.136719 717.480469 326.511719 C 717.480469 331.847656 713.445313 335.832031 707.960938 335.832031 C 702.511719 335.832031 698.472656 331.847656 698.472656 326.511719 "/>
</g>
<g clip-path="url(#clip6)" clip-rule="nonzero">
<path style=" stroke:none;fill-rule:nonzero;fill:rgb(0.799561%,1.199341%,1.199341%);fill-opacity:1;" d="M 747.988281 314.304688 L 744.691406 314.304688 L 744.691406 333.207031 L 728.140625 314.304688 L 725.355469 314.304688 L 725.355469 338.730469 L 728.660156 338.730469 L 728.660156 319.921875 L 744.980469 338.730469 L 747.988281 338.730469 L 747.988281 314.304688 "/>
</g>
<g clip-path="url(#clip7)" clip-rule="nonzero">
<path style=" stroke:none;fill-rule:nonzero;fill:rgb(2.69928%,51.799011%,34.498596%);fill-opacity:1;" d="M 543.773438 280.046875 C 543.773438 280.046875 589.34375 171.394531 592.839844 165.550781 C 596.355469 159.707031 620.527344 118.601563 690.632813 115.105469 C 753.054688 111.449219 747.296875 118.558594 747.296875 118.558594 L 722.953125 164.171875 L 671.941406 164.171875 C 671.941406 164.171875 660.253906 164.171875 657.917969 173.511719 C 655.652344 180.300781 666.097656 179.355469 666.097656 179.355469 L 714.199219 179.203125 L 696.667969 223.726563 L 643.902344 224.925781 C 643.902344 224.925781 633.382813 227.261719 629.878906 236.613281 C 626.371094 245.953125 613.515625 279.847656 613.515625 279.847656 L 543.773438 280.046875 "/>
</g>
<path style=" stroke:none;fill-rule:nonzero;fill:rgb(2.69928%,51.799011%,34.498596%);fill-opacity:1;" d="M 389.71875 288.738281 C 328.378906 288.738281 295.953125 251.359375 315.703125 203.507813 C 335.636719 155.140625 398.875 117.769531 461.066406 117.769531 C 522.957031 117.769531 555.660156 155.140625 535.71875 203.507813 C 515.785156 251.851563 452.46875 288.738281 389.71875 288.738281 M 406.347656 254.878906 L 449.25 162.769531 C 449.25 162.769531 458.070313 147.765625 445.46875 146.363281 C 435.757813 144.960938 430.328125 160.238281 430.328125 160.238281 L 393.726563 241 C 393.726563 241 380.539063 261.125 392.460938 262.453125 C 403.816406 263.71875 406.347656 254.878906 406.347656 254.878906 "/>
<path style=" stroke:none;fill-rule:nonzero;fill:rgb(92.89856%,12.89978%,18.798828%);fill-opacity:1;" d="M 0.988281 281.980469 L 234.613281 281.90625 C 234.613281 281.90625 306.34375 90.359375 429.402344 0.00390625 C 429.402344 0.00390625 177.035156 88.804688 0.988281 281.980469 "/>
<path style=" stroke:none;fill-rule:nonzero;fill:rgb(0.799561%,1.199341%,1.199341%);fill-opacity:1;" d="M 3.515625 314.304688 L 0 314.304688 L 0 338.730469 L 3.515625 338.730469 L 3.515625 314.304688 "/>
<path style=" stroke:none;fill-rule:nonzero;fill:rgb(0.799561%,1.199341%,1.199341%);fill-opacity:1;" d="M 31.523438 314.304688 L 28.230469 314.304688 L 28.230469 333.207031 L 11.675781 314.304688 L 8.894531 314.304688 L 8.894531 338.730469 L 12.175781 338.730469 L 12.175781 319.921875 L 28.507813 338.730469 L 31.523438 338.730469 L 31.523438 314.304688 "/>
<path style=" stroke:none;fill-rule:nonzero;fill:rgb(0.799561%,1.199341%,1.199341%);fill-opacity:1;" d="M 55.21875 314.304688 L 34.808594 314.304688 L 34.808594 317.460938 L 43.265625 317.460938 L 43.265625 338.730469 L 46.761719 338.730469 L 46.761719 317.460938 L 55.21875 317.460938 L 55.21875 314.304688 "/>
<path style=" stroke:none;fill-rule:nonzero;fill:rgb(0.799561%,1.199341%,1.199341%);fill-opacity:1;" d="M 72.355469 314.304688 L 58.503906 314.304688 L 58.503906 338.730469 L 72.683594 338.730469 L 72.683594 335.574219 L 62.007813 335.574219 L 62.007813 327.976563 L 71.996094 327.976563 L 71.996094 324.832031 L 62.007813 324.832031 L 62.007813 317.460938 L 72.355469 317.460938 L 72.355469 314.304688 "/>
<path style=" stroke:none;fill-rule:nonzero;fill:rgb(0.799561%,1.199341%,1.199341%);fill-opacity:1;" d="M 76.476563 314.304688 L 76.476563 338.730469 L 79.996094 338.730469 L 79.996094 328.128906 L 81.460938 328.128906 C 83.25 328.128906 84.714844 328.691406 87.933594 333.714844 L 91.164063 338.730469 L 95.359375 338.730469 C 93.667969 336.394531 93.066406 335.574219 92.023438 333.886719 C 90.152344 330.847656 88.792969 328.582031 86.574219 327.117188 C 89.199219 326.085938 90.652344 323.972656 90.652344 321.144531 C 90.652344 316.90625 87.582031 314.304688 82.640625 314.304688 Z M 79.996094 317.3125 L 82.25 317.3125 C 85.648438 317.3125 87.007813 318.703125 87.042969 321.007813 C 87.070313 323.035156 86.011719 324.972656 82.25 324.972656 L 79.996094 324.972656 L 79.996094 317.3125 "/>
<path style=" stroke:none;fill-rule:nonzero;fill:rgb(0.799561%,1.199341%,1.199341%);fill-opacity:1;" d="M 120.628906 314.304688 L 117.320313 314.304688 L 117.320313 333.207031 L 100.777344 314.304688 L 97.996094 314.304688 L 97.996094 338.730469 L 101.289063 338.730469 L 101.289063 319.921875 L 117.621094 338.730469 L 120.628906 338.730469 L 120.628906 314.304688 "/>
<path style=" stroke:none;fill-rule:nonzero;fill:rgb(0.799561%,1.199341%,1.199341%);fill-opacity:1;" d="M 136.257813 314.152344 L 133.789063 314.152344 L 123.292969 338.71875 L 126.886719 338.71875 L 129.957031 331.527344 L 140.335938 331.527344 L 143.597656 338.71875 L 147.179688 338.71875 Z M 134.972656 319.53125 L 138.910156 328.382813 L 131.316406 328.382813 Z M 134.972656 319.53125 "/>
<path style=" stroke:none;fill-rule:nonzero;fill:rgb(0.799561%,1.199341%,1.199341%);fill-opacity:1;" d="M 164.613281 314.304688 L 144.203125 314.304688 L 144.203125 317.460938 L 152.660156 317.460938 L 152.660156 338.730469 L 156.167969 338.730469 L 156.167969 317.460938 L 164.613281 317.460938 L 164.613281 314.304688 "/>
<path style=" stroke:none;fill-rule:nonzero;fill:rgb(0.799561%,1.199341%,1.199341%);fill-opacity:1;" d="M 171.445313 314.304688 L 167.929688 314.304688 L 167.929688 338.730469 L 171.445313 338.730469 L 171.445313 314.304688 "/>
<g clip-path="url(#clip8)" clip-rule="nonzero">
<path style=" stroke:none;fill-rule:nonzero;fill:rgb(0.799561%,1.199341%,1.199341%);fill-opacity:1;" d="M 175.78125 326.511719 C 175.78125 333.140625 180.828125 339.050781 188.816406 339.050781 C 197.09375 339.050781 202.035156 333.109375 202.035156 326.511719 C 202.035156 319.710938 196.945313 313.972656 188.894531 313.972656 C 180.96875 313.972656 175.78125 319.742188 175.78125 326.511719 M 179.394531 326.511719 C 179.394531 321.136719 183.441406 317.203125 188.894531 317.203125 C 194.363281 317.203125 198.410156 321.136719 198.410156 326.511719 C 198.410156 331.847656 194.363281 335.832031 188.894531 335.832031 C 183.441406 335.832031 179.394531 331.847656 179.394531 326.511719 "/>
</g>
<path style=" stroke:none;fill-rule:nonzero;fill:rgb(0.799561%,1.199341%,1.199341%);fill-opacity:1;" d="M 228.917969 314.304688 L 225.625 314.304688 L 225.625 333.207031 L 209.070313 314.304688 L 206.285156 314.304688 L 206.285156 338.730469 L 209.578125 338.730469 L 209.578125 319.921875 L 225.910156 338.730469 L 228.917969 338.730469 L 228.917969 314.304688 "/>
<path style=" stroke:none;fill-rule:nonzero;fill:rgb(0.799561%,1.199341%,1.199341%);fill-opacity:1;" d="M 244.558594 314.152344 L 242.082031 314.152344 L 231.585938 338.71875 L 235.175781 338.71875 L 238.257813 331.527344 L 248.636719 331.527344 L 251.902344 338.71875 L 255.480469 338.71875 Z M 243.273438 319.53125 L 247.203125 328.382813 L 239.617188 328.382813 Z M 243.273438 319.53125 "/>
<path style=" stroke:none;fill-rule:nonzero;fill:rgb(0.799561%,1.199341%,1.199341%);fill-opacity:1;" d="M 261.632813 314.304688 L 258.117188 314.304688 L 258.117188 338.730469 L 272.660156 338.730469 L 272.660156 335.574219 L 261.632813 335.574219 L 261.632813 314.304688 "/>
<g clip-path="url(#clip9)" clip-rule="nonzero">
<path style=" stroke:none;fill-rule:nonzero;fill:rgb(0.799561%,1.199341%,1.199341%);fill-opacity:1;" d="M 284.574219 326.511719 C 284.574219 333.140625 289.628906 339.050781 297.609375 339.050781 C 305.875 339.050781 310.828125 333.109375 310.828125 326.511719 C 310.828125 319.710938 305.738281 313.972656 297.683594 313.972656 C 289.765625 313.972656 284.574219 319.742188 284.574219 326.511719 M 288.1875 326.511719 C 288.1875 321.136719 292.230469 317.203125 297.683594 317.203125 C 303.15625 317.203125 307.203125 321.136719 307.203125 326.511719 C 307.203125 331.847656 303.15625 335.832031 297.683594 335.832031 C 292.230469 335.832031 288.1875 331.847656 288.1875 326.511719 "/>
</g>
<path style=" stroke:none;fill-rule:nonzero;fill:rgb(0.799561%,1.199341%,1.199341%);fill-opacity:1;" d="M 315.195313 314.304688 L 315.195313 338.730469 L 318.699219 338.730469 L 318.699219 328.128906 L 320.175781 328.128906 C 321.949219 328.128906 323.429688 328.691406 326.648438 333.714844 L 329.878906 338.730469 L 334.0625 338.730469 C 332.375 336.394531 331.769531 335.574219 330.738281 333.886719 C 328.867188 330.847656 327.507813 328.582031 325.289063 327.117188 C 327.914063 326.085938 329.367188 323.972656 329.367188 321.144531 C 329.367188 316.90625 326.285156 314.304688 321.34375 314.304688 Z M 318.699219 317.3125 L 320.953125 317.3125 C 324.363281 317.3125 325.722656 318.703125 325.753906 321.007813 C 325.789063 323.035156 324.722656 324.972656 320.953125 324.972656 L 318.699219 324.972656 L 318.699219 317.3125 "/>
<path style=" stroke:none;fill-rule:nonzero;fill:rgb(0.799561%,1.199341%,1.199341%);fill-opacity:1;" d="M 340.277344 314.304688 L 336.761719 314.304688 L 336.761719 338.730469 L 340.277344 338.730469 L 340.277344 314.304688 "/>
<path style=" stroke:none;fill-rule:nonzero;fill:rgb(0.799561%,1.199341%,1.199341%);fill-opacity:1;" d="M 359.554688 314.304688 L 345.6875 314.304688 L 345.6875 338.730469 L 359.871094 338.730469 L 359.871094 335.574219 L 349.203125 335.574219 L 349.203125 327.976563 L 359.191406 327.976563 L 359.191406 324.832031 L 349.203125 324.832031 L 349.203125 317.460938 L 359.554688 317.460938 L 359.554688 314.304688 "/>
<path style=" stroke:none;fill-rule:nonzero;fill:rgb(0.799561%,1.199341%,1.199341%);fill-opacity:1;" d="M 386.191406 314.304688 L 382.898438 314.304688 L 382.898438 333.207031 L 366.351563 314.304688 L 363.570313 314.304688 L 363.570313 338.730469 L 366.863281 338.730469 L 366.863281 319.921875 L 383.195313 338.730469 L 386.191406 338.730469 L 386.191406 314.304688 "/>
<path style=" stroke:none;fill-rule:nonzero;fill:rgb(0.799561%,1.199341%,1.199341%);fill-opacity:1;" d="M 409.886719 314.304688 L 389.472656 314.304688 L 389.472656 317.460938 L 397.929688 317.460938 L 397.929688 338.730469 L 401.4375 338.730469 L 401.4375 317.460938 L 409.886719 317.460938 L 409.886719 314.304688 "/>
<path style=" stroke:none;fill-rule:nonzero;fill:rgb(0.799561%,1.199341%,1.199341%);fill-opacity:1;" d="M 427.03125 314.304688 L 413.167969 314.304688 L 413.167969 338.730469 L 427.351563 338.730469 L 427.351563 335.574219 L 416.683594 335.574219 L 416.683594 327.976563 L 426.671875 327.976563 L 426.671875 324.832031 L 416.683594 324.832031 L 416.683594 317.460938 L 427.03125 317.460938 L 427.03125 314.304688 "/>
<path style=" stroke:none;fill-rule:nonzero;fill:rgb(0.799561%,1.199341%,1.199341%);fill-opacity:1;" d="M 444.9375 314.304688 L 431.082031 314.304688 L 431.082031 338.730469 L 445.265625 338.730469 L 445.265625 335.574219 L 434.585938 335.574219 L 434.585938 327.976563 L 444.578125 327.976563 L 444.578125 324.832031 L 434.585938 324.832031 L 434.585938 317.460938 L 444.9375 317.460938 L 444.9375 314.304688 "/>
<path style=" stroke:none;fill-rule:nonzero;fill:rgb(0.799561%,1.199341%,1.199341%);fill-opacity:1;" d="M 449.058594 314.304688 L 449.058594 338.730469 L 452.574219 338.730469 L 452.574219 328.128906 L 454.042969 328.128906 C 455.828125 328.128906 457.292969 328.691406 460.511719 333.714844 L 463.742188 338.730469 L 467.941406 338.730469 C 466.25 336.394531 465.632813 335.574219 464.605469 333.886719 C 462.734375 330.847656 461.375 328.582031 459.15625 327.117188 C 461.777344 326.085938 463.246094 323.972656 463.246094 321.144531 C 463.246094 316.90625 460.152344 314.304688 455.222656 314.304688 Z M 452.574219 317.3125 L 454.828125 317.3125 C 458.226563 317.3125 459.589844 318.703125 459.621094 321.007813 C 459.652344 323.035156 458.589844 324.972656 454.828125 324.972656 L 452.574219 324.972656 L 452.574219 317.3125 "/>
<path style=" stroke:none;fill-rule:nonzero;fill:rgb(0.799561%,1.199341%,1.199341%);fill-opacity:1;" d="M 474.144531 314.304688 L 470.640625 314.304688 L 470.640625 338.730469 L 474.144531 338.730469 L 474.144531 314.304688 "/>
<path style=" stroke:none;fill-rule:nonzero;fill:rgb(0.799561%,1.199341%,1.199341%);fill-opacity:1;" d="M 502.152344 314.304688 L 498.859375 314.304688 L 498.859375 333.207031 L 482.316406 314.304688 L 479.53125 314.304688 L 479.53125 338.730469 L 482.824219 338.730469 L 482.824219 319.921875 L 499.148438 338.730469 L 502.152344 338.730469 L 502.152344 314.304688 "/>
<g clip-path="url(#clip10)" clip-rule="nonzero">
<path style=" stroke:none;fill-rule:nonzero;fill:rgb(0.799561%,1.199341%,1.199341%);fill-opacity:1;" d="M 528.929688 326.691406 L 520.726563 326.691406 L 520.726563 329.847656 L 525.410156 329.847656 L 525.410156 334.863281 C 523.742188 335.394531 522.023438 335.820313 520.121094 335.820313 C 514.320313 335.820313 510.238281 331.992188 510.238281 326.554688 C 510.238281 321.253906 514.351563 317.203125 519.652344 317.203125 C 522.585938 317.203125 525.570313 318.023438 528.429688 319.597656 L 528.429688 316.042969 C 524.605469 314.441406 522.585938 313.972656 519.726563 313.972656 C 512.269531 313.972656 506.613281 319.457031 506.613281 326.660156 C 506.613281 333.820313 512.128906 339.050781 519.621094 339.050781 C 523.023438 339.050781 525.667969 338.476563 528.929688 337.042969 L 528.929688 326.691406 "/>
</g>
<path style=" stroke:none;fill-rule:nonzero;fill:rgb(0.799561%,1.199341%,1.199341%);fill-opacity:1;" d="M 557.03125 314.304688 L 543.996094 314.304688 L 543.996094 338.730469 L 547.5 338.730469 L 547.5 327.371094 L 557.03125 327.371094 L 557.03125 324.226563 L 547.5 324.226563 L 547.5 317.460938 L 557.03125 317.460938 L 557.03125 314.304688 "/>
<path style=" stroke:none;fill-rule:nonzero;fill:rgb(0.799561%,1.199341%,1.199341%);fill-opacity:1;" d="M 574.605469 314.304688 L 560.75 314.304688 L 560.75 338.730469 L 574.933594 338.730469 L 574.933594 335.574219 L 564.269531 335.574219 L 564.269531 327.976563 L 574.257813 327.976563 L 574.257813 324.832031 L 564.269531 324.832031 L 564.269531 317.460938 L 574.605469 317.460938 L 574.605469 314.304688 "/>
<path style=" stroke:none;fill-rule:nonzero;fill:rgb(0.799561%,1.199341%,1.199341%);fill-opacity:1;" d="M 578.695313 338.71875 L 588.226563 338.71875 C 596.28125 338.71875 601.191406 332.78125 601.191406 326.523438 C 601.191406 320.753906 597.214844 314.304688 588.183594 314.304688 L 578.695313 314.304688 Z M 582.214844 317.460938 L 587.621094 317.460938 C 594.453125 317.460938 597.578125 321.613281 597.578125 326.523438 C 597.578125 329.519531 595.75 335.574219 587.792969 335.574219 L 582.214844 335.574219 L 582.214844 317.460938 "/>
<path style=" stroke:none;fill-rule:nonzero;fill:rgb(0.799561%,1.199341%,1.199341%);fill-opacity:1;" d="M 619.378906 314.304688 L 605.523438 314.304688 L 605.523438 338.730469 L 619.710938 338.730469 L 619.710938 335.574219 L 609.042969 335.574219 L 609.042969 327.976563 L 619.03125 327.976563 L 619.03125 324.832031 L 609.042969 324.832031 L 609.042969 317.460938 L 619.378906 317.460938 L 619.378906 314.304688 "/>
<path style=" stroke:none;fill-rule:nonzero;fill:rgb(0.799561%,1.199341%,1.199341%);fill-opacity:1;" d="M 623.503906 314.304688 L 623.503906 338.730469 L 627.019531 338.730469 L 627.019531 328.128906 L 628.484375 328.128906 C 630.269531 328.128906 631.738281 328.691406 634.957031 333.714844 L 638.199219 338.730469 L 642.382813 338.730469 C 640.695313 336.394531 640.089844 335.574219 639.058594 333.886719 C 637.175781 330.847656 635.816406 328.582031 633.597656 327.117188 C 636.222656 326.085938 637.699219 323.972656 637.699219 321.144531 C 637.699219 316.90625 634.617188 314.304688 629.664063 314.304688 Z M 627.019531 317.3125 L 629.273438 317.3125 C 632.671875 317.3125 634.03125 318.703125 634.0625 321.007813 C 634.105469 323.035156 633.035156 324.972656 629.273438 324.972656 L 627.019531 324.972656 L 627.019531 317.3125 "/>
<path style=" stroke:none;fill-rule:nonzero;fill:rgb(0.799561%,1.199341%,1.199341%);fill-opacity:1;" d="M 655.324219 314.152344 L 652.859375 314.152344 L 642.363281 338.71875 L 645.953125 338.71875 L 649.023438 331.527344 L 659.40625 331.527344 L 662.675781 338.71875 L 666.257813 338.71875 Z M 654.050781 319.53125 L 657.980469 328.382813 L 650.382813 328.382813 Z M 654.050781 319.53125 "/>
<path style=" stroke:none;fill-rule:nonzero;fill:rgb(0.799561%,1.199341%,1.199341%);fill-opacity:1;" d="M 683.695313 314.304688 L 663.285156 314.304688 L 663.285156 317.460938 L 671.730469 317.460938 L 671.730469 338.730469 L 675.238281 338.730469 L 675.238281 317.460938 L 683.695313 317.460938 L 683.695313 314.304688 "/>
<path style=" stroke:none;fill-rule:nonzero;fill:rgb(0.799561%,1.199341%,1.199341%);fill-opacity:1;" d="M 690.515625 314.304688 L 686.996094 314.304688 L 686.996094 338.730469 L 690.515625 338.730469 L 690.515625 314.304688 "/>
<g clip-path="url(#clip11)" clip-rule="nonzero">
<path style=" stroke:none;fill-rule:nonzero;fill:rgb(0.799561%,1.199341%,1.199341%);fill-opacity:1;" d="M 694.851563 326.511719 C 694.851563 333.140625 699.898438 339.050781 707.886719 339.050781 C 716.164063 339.050781 721.105469 333.109375 721.105469 326.511719 C 721.105469 319.710938 716.015625 313.972656 707.960938 313.972656 C 700.035156 313.972656 694.851563 319.742188 694.851563 326.511719 M 698.472656 326.511719 C 698.472656 321.136719 702.511719 317.203125 707.960938 317.203125 C 713.433594 317.203125 717.480469 321.136719 717.480469 326.511719 C 717.480469 331.847656 713.433594 335.832031 707.960938 335.832031 C 702.511719 335.832031 698.472656 331.847656 698.472656 326.511719 "/>
</g>
<g clip-path="url(#clip12)" clip-rule="nonzero">
<path style=" stroke:none;fill-rule:nonzero;fill:rgb(0.799561%,1.199341%,1.199341%);fill-opacity:1;" d="M 747.988281 314.304688 L 744.691406 314.304688 L 744.691406 333.207031 L 728.140625 314.304688 L 725.355469 314.304688 L 725.355469 338.730469 L 728.648438 338.730469 L 728.648438 319.921875 L 744.992188 338.730469 L 747.988281 338.730469 L 747.988281 314.304688 "/>
</g>
</g>
</svg>
