<?xml version="1.0" encoding="UTF-8"?>
<svg id="design" xmlns="http://www.w3.org/2000/svg" viewBox="0 0 1245.05 220.53">
  <defs>
    <style>
      .cls-1 {
        fill: #fe5900;
      }
    </style>
  </defs>
  <path class="cls-1" d="M1189.13,94.71l-24.57-3.39c-23.91-3.39-35.86-12.9-35.86-28.52,0-9.23,3.76-16.57,11.3-22.03,7.52-5.65,17.51-8.47,29.93-8.47s23.34,2.82,31.06,8.47c7.72,5.46,11.77,12.99,12.15,22.6h29.09c-.38-17.32-7.06-30.97-20.05-40.95-12.8-9.98-30.22-14.97-52.25-14.97s-38.41,5.18-51.4,15.53c-12.8,10.36-19.21,24.2-19.21,41.52,0,30.5,18.92,48.3,56.77,53.38l25.99,3.67c22.4,3.01,33.61,13.27,33.61,30.78,0,10.73-4.05,19.39-12.15,25.99-7.9,6.4-18.64,9.6-32.19,9.6-15.25,0-27.31-3.48-36.16-10.45-8.66-7.16-13.08-16.76-13.28-28.81h-29.08c.19,19.96,7.25,35.68,21.18,47.17,13.93,11.49,33.04,17.23,57.34,17.23,22.78,0,40.76-5.65,53.94-16.95,13.17-11.3,19.77-26.45,19.77-45.47,0-32.2-18.64-50.84-55.92-55.92Z"/>
  <rect class="cls-1" x="1035.14" y="11.39" width="28.24" height="197.7"/>
  <path class="cls-1" d="M985.49,108.82c10.63-10.17,15.9-23.76,15.9-40.68s-5.92-31.52-17.56-41.51c-11.46-10.17-27.46-15.25-47.98-15.25h-84.78v197.75h28.29v-84.22h27.36l64.99,84.22h35.32l-65.27-83.94c18.86-.92,33.37-6.38,43.73-16.36ZM879.36,99.21v-61.29h56.49c11.65,0,20.71,2.68,27.09,7.95,6.38,5.27,9.61,12.66,9.61,22.28s-3.24,17.75-9.61,23.2c-6.38,5.27-15.44,7.86-27.09,7.86h-56.49Z"/>
  <path class="cls-1" d="M729.04,7.41c-27.09,0-48.72,8.96-64.99,26.9-15.99,17.84-23.94,43.17-23.94,75.9s7.95,58.15,23.94,75.99c16.27,17.93,37.9,26.81,64.99,26.81s48.44-8.87,64.44-26.81c16.18-17.84,24.22-43.17,24.22-75.99s-8.04-58.06-24.22-75.9c-15.99-17.94-37.53-26.9-64.44-26.9ZM772.31,167.25c-10.82,13.04-25.15,19.51-43.27,19.51s-32.82-6.47-43.73-19.51c-10.72-13.13-16.18-32.17-16.18-57.04s5.45-43.73,16.18-56.76c10.91-13.13,25.52-19.79,43.73-19.79s32.45,6.66,43.27,19.79c10.91,13.03,16.36,31.89,16.36,56.76s-5.45,43.91-16.36,57.04Z"/>
  <path class="cls-1" d="M406.22,7.04c-52.97,0-96.52,39.85-102.53,91.25h-143.66L17.75,2.05C10.26-3.03,0,2.33,0,11.48v197.65c0,9.15,10.26,14.52,17.75,9.43l142.46-96.33h143.48c6.01,51.4,49.55,91.34,102.53,91.34,57.04,0,103.26-46.22,103.26-103.26S463.26,7.04,406.22,7.04ZM24.04,185.28V35.33l110.94,74.97L24.04,185.28ZM360.46,143.59c-6.1,0-11.09-4.99-11.09-11.1s4.99-11.19,11.09-11.19,11.19,4.99,11.19,11.19-4.99,11.1-11.19,11.1ZM360.55,99.21c-6.1,0-11.19-4.99-11.19-11.19s5.09-11.09,11.19-11.09,11.09,4.99,11.09,11.09-4.99,11.19-11.09,11.19ZM406.22,143.68c-6.19,0-11.19-5.08-11.19-11.19s4.99-11.09,11.19-11.09,11.09,4.99,11.09,11.09-4.99,11.19-11.09,11.19ZM406.22,99.21c-6.1,0-11.09-4.99-11.09-11.09s4.99-11.19,11.09-11.19,11.19,5.08,11.19,11.19-4.99,11.09-11.19,11.09ZM451.89,143.68c-6.1,0-11.09-4.99-11.09-11.09s4.99-11.19,11.09-11.19,11.19,4.99,11.19,11.19-5.09,11.09-11.19,11.09ZM451.98,99.31c-6.19,0-11.19-4.99-11.19-11.19s4.99-11.1,11.19-11.1,11.09,4.99,11.09,11.1-4.99,11.19-11.09,11.19Z"/>
</svg>